<svg version="1.0" xmlns="http://www.w3.org/2000/svg" width="24" height="24" viewBox="0 0 512.000000 512.000000" preserveAspectRatio="xMidYMid meet"> <g transform="translate(0.000000,512.000000) scale(0.100000,-0.100000)" fill="currentColor" stroke="none"> <path d="M2425 4935 c-31 -30 -31 -45 4 -182 l29 -112 -432 -3 -431 -3 -63 -34 c-70 -38 -100 -69 -140 -145 l-27 -51 -3 -682 -3 -683 81 0 80 0 2 669 c3 658 3 670 24 697 11 15 33 37 48 48 26 20 43 21 297 24 l269 3 0 -81 0 -80 -215 0 c-216 0 -216 0 -240 -25 l-25 -24 0 -616 0 -615 80 0 80 0 0 560 0 560 960 0 960 0 0 -640 0 -640 80 0 80 0 0 695 0 696 -25 24 c-24 25 -24 25 -240 25 l-215 0 0 80 0 80 255 0 c287 0 303 -3 351 -66 l29 -37 3 -709 2 -708 81 0 80 0 -3 723 -3 722 -27 51 c-40 76 -70 107 -140 145 l-63 34 -431 3 -432 3 29 112 c35 137 35 152 4 182 l-24 25 -351 0 -351 0 -24 -25z m564 -247 c-35 -138 -35 -153 -4 -183 23 -24 29 -25 160 -25 l135 0 0 -80 0 -80 -480 0 -480 0 0 80 0 80 135 0 c131 0 137 1 160 25 31 30 31 45 -4 183 l-29 112 218 0 218 0 -29 -112z"/> <path d="M2025 3975 c-25 -24 -25 -26 -25 -215 0 -257 -17 -240 240 -240 257 0 240 -17 240 240 0 257 17 240 -240 240 -189 0 -191 0 -215 -25z m295 -215 l0 -80 -80 0 -80 0 0 80 0 80 80 0 80 0 0 -80z"/> <path d="M2640 3920 l0 -80 80 0 80 0 0 80 0 80 -80 0 -80 0 0 -80z"/> <path d="M2960 3920 l0 -80 320 0 320 0 0 80 0 80 -320 0 -320 0 0 -80z"/> <path d="M2640 3600 l0 -80 480 0 480 0 0 80 0 80 -480 0 -480 0 0 -80z"/> <path d="M2025 3255 c-25 -24 -25 -26 -25 -215 0 -257 -17 -240 240 -240 257 0 240 -17 240 240 0 257 17 240 -240 240 -189 0 -191 0 -215 -25z m295 -215 l0 -80 -80 0 -80 0 0 80 0 80 80 0 80 0 0 -80z"/> <path d="M2640 3200 l0 -80 80 0 80 0 0 80 0 80 -80 0 -80 0 0 -80z"/> <path d="M2960 3200 l0 -80 320 0 320 0 0 80 0 80 -320 0 -320 0 0 -80z"/> <path d="M2640 2880 l0 -80 480 0 480 0 0 80 0 80 -480 0 -480 0 0 -80z"/> <path d="M3470 2563 l-1085 -325 -70 -64 c-203 -183 -235 -218 -235 -252 0 -63 23 -74 242 -112 l197 -33 388 116 c213 64 607 181 875 261 267 80 489 146 493 146 3 0 5 -37 3 -82 l-3 -83 -270 -80 c-148 -45 -269 -86 -268 -91 3 -17 36 -139 38 -142 4 -4 607 176 631 189 37 19 42 46 35 197 -5 122 -4 143 9 146 8 3 76 23 150 46 126 39 138 45 182 90 147 152 43 402 -168 399 -47 0 -270 -64 -1144 -326z m1197 145 c28 -27 31 -80 5 -106 -10 -10 -56 -30 -103 -45 -141 -43 -135 -43 -143 -6 -3 17 -6 53 -6 80 l0 48 78 25 c99 31 139 32 169 4z m-402 -154 c4 -41 4 -79 -1 -84 -9 -7 -1213 -370 -1231 -370 -8 0 -55 141 -49 147 3 3 1258 381 1268 382 3 1 9 -33 13 -75z m-1415 -425 c12 -40 18 -75 13 -79 -4 -4 -87 -30 -183 -59 l-176 -52 -78 16 c-44 8 -80 16 -82 18 -2 2 23 29 55 61 l59 58 173 53 c96 29 179 54 186 54 6 1 21 -31 33 -70z"/> <path d="M265 2855 l-25 -24 0 -1311 0 -1311 25 -24 24 -25 1471 0 1471 0 24 25 25 24 0 671 0 671 -25 24 -24 25 -696 0 -695 0 0 615 0 616 -25 24 -24 25 -751 0 -751 0 -24 -25z m455 -350 c0 -216 0 -216 25 -240 l24 -25 271 0 271 0 24 25 c25 24 25 24 25 240 l0 215 160 0 160 0 0 -560 0 -560 -640 0 -640 0 0 560 0 560 160 0 160 0 0 -215z m480 55 l0 -160 -160 0 -160 0 0 160 0 160 160 0 160 0 0 -160z m-480 -1335 c0 -216 0 -216 25 -240 l24 -25 271 0 271 0 24 25 c25 24 25 24 25 240 l0 215 160 0 160 0 0 -560 0 -560 -640 0 -640 0 0 560 0 560 160 0 160 0 0 -215z m480 55 l0 -160 -160 0 -160 0 0 160 0 160 160 0 160 0 0 -160z m960 -55 c0 -216 0 -216 25 -240 l24 -25 271 0 271 0 24 25 c25 24 25 24 25 240 l0 215 160 0 160 0 0 -560 0 -560 -640 0 -640 0 0 560 0 560 160 0 160 0 0 -215z m480 55 l0 -160 -160 0 -160 0 0 160 0 160 160 0 160 0 0 -160z"/> <path d="M1360 1840 l0 -80 80 0 80 0 0 80 0 80 -80 0 -80 0 0 -80z"/> <path d="M1360 560 l0 -80 80 0 80 0 0 80 0 80 -80 0 -80 0 0 -80z"/> <path d="M2800 560 l0 -80 80 0 80 0 0 80 0 80 -80 0 -80 0 0 -80z"/> <path d="M4078 1371 c-3 -376 -4 -391 -24 -417 -11 -15 -33 -37 -48 -48 -26 -20 -43 -21 -297 -24 l-269 -3 0 -80 0 -80 283 3 282 3 63 34 c70 38 100 69 140 145 l27 51 3 403 3 402 -80 0 -80 0 -3 -389z"/> <path d="M3760 1440 l0 -240 -160 0 -160 0 0 -80 0 -80 215 0 c216 0 216 0 240 25 l25 24 0 296 0 295 -80 0 -80 0 0 -240z"/> </g> </svg>