<svg xmlns="http://www.w3.org/2000/svg" viewBox="0 0 24 24"><g transform="scale(0.046875,0.046875) translate(0,512) scale(0.1,-0.1)"><path fill="#FFFFFF" d="M940 4907c-80-23-141-60-200-124-91-97-103-138-108-361-3-166-5-183-20-177-103 40-140 47-217 42-112-6-182-35-259-107-65-61-107-132-125-211-7-27-11-315-11-764 0-785 0-787 57-884 39-67 110-131 183-165 54-25 81-31 155-34 86-4 131 5 217 42 15 7 17-9 20-181l3-189 33-67c43-86 113-156 199-199 64-31 74-33 173-33 102 0 109 1 182 38 130 64 209 175 228 319 5 40 10 250 10 466v392h200v-103c0-167 39-276 133-371 29-29 60-57 70-63 16-8 12-62-78-921-52-502-95-930-95-952 0-27 7-48 24-67l24-28 202-3 201-3 34 34c47 47 47 87 1 133l-34 34h-121c-90 0-121 3-121 13 0 6 42 419 94 916 58 552 91 912 86 925-10 26-32 45-92 80-53 30-100 91-117 151-6 22-11 82-11 133v92h680l-29-47c-41-69-64-148-65-225-1-61 2-70 27-95 40-41 99-39 138 5 20 22 29 43 29 65 0 19 7 56 15 84 33 112 122 185 251 208 95 16 129 44 129 105 0 30-7 47-28 68-26 26-33 27-145 32-128 6-153 14-182 63-40 65-15 148 53 180 29 14 68 17 224 17 212 0 239-7 281-70 23-35 23-36 20-310l-3-275-27-50c-30-58-101-128-151-148-54-23-77-54-77-104 0-23 40-430 90-904s90-872 90-885c0-24-2-24-95-24-64 0-105-5-124-14-66-35-66-137 0-172 43-22 356-20 388 2 55 39 56 5-44 969-52 490-96 908-99 930-5 39-3 41 46 75 131 89 208 250 208 438v82h200v-392c0-216 5-426 10-466 19-144 105-262 237-325 63-30 76-32 173-32 99 0 109 2 173 33 86 43 156 113 199 199l33 68 3 188c4 171 5 188 20 181 86-37 131-46 217-42 74 3 101 9 155 34 113 53 194 151 225 271 14 53 15 156 13 804l-3 744-33 70c-95 202-310 293-517 220-38-14-71-25-72-25s-3 82-5 183c-5 232-16 268-122 373-92 91-160 119-286 119-184 0-321-96-392-274-22-54-22-69-26-498l-4-443h-198v53c0 124-64 233-167 283-49 25-70 29-138 29-72 0-86-3-137-32l-57-32-62 32c-55 28-72 32-143 32-73 0-87-3-138-32l-57-32-62 32c-55 28-72 32-143 32-73 0-87-3-138-32l-57-32-62 32c-55 28-72 32-143 32s-88-4-134-30c-102-56-153-138-160-257l-5-78h-195l-4 443c-4 429-4 444-26 498-49 122-132 208-244 251-66 25-187 32-248 15m186-206c50-23 111-93 121-140 5-20 8-637 8-1371V1854l-26-49c-63-124-222-154-326-62-20 18-44 50-54 72-18 38-19 106-19 1390 0 1293 1 1352 19 1390 49 105 173 153 277 106m3017 8c49-13 105-63 128-114 18-38 19-106 19-1390s-1-1352-19-1390c-73-161-300-167-380-10l-26 49v1336c0 734 4 1352 8 1373 10 48 69 114 122 138 45 21 93 24 148 8M532 4054c24-16 54-50 68-74l25-45 3-700c2-480 0-716-8-751-35-166-244-222-362-97-60 63-58 37-58 810 0 463 4 721 11 746 13 49 63 105 114 129 61 29 152 21 207-18m4263 17c51-23 101-79 114-128 7-25 11-283 11-746 0-773 2-747-58-810-42-45-94-67-157-67-102 0-184 66-205 164-8 35-10 271-8 751l3 700 22 42c23 43 69 84 113 102 40 16 122 12 165-8m-2769-235 34-34v-424l-34-34c-50-50-121-42-152 17-19 39-20 422 0 458 33 59 102 67 152 17m400 0 34-34v-424l-34-34c-50-50-121-42-152 17-19 39-20 422 0 458 33 59 102 67 152 17m400 0 34-34-2-214-3-213-67-7c-37-3-76-9-87-13-35-11-41 22-41 237 1 217 5 238 51 264 42 23 78 17 115-20m400 0 34-34v-207c0-218-6-251-41-240-11 4-50 10-87 13l-67 7-3 205c-3 222 2 251 47 275 44 24 80 18 117-19m-1564-423c5-96 23-144 79-207 87-100 267-123 376-49l36 24 65-32c54-28 76-33 131-34 36 0 77 3 91 7l25 7v-77c0-42 4-92 8-109l9-33H1460v590h198zm1998-208v-295h-197l-5 103c-4 83-9 113-31 160l-26 57 26 51c21 39 28 69 31 135l5 84h197z"/><path fill="#FFFFFF" d="M2511 386c-90-50-50-186 55-186 38 0 94 59 94 100 0 23-9 42-34 66-37 37-73 43-115 20"/></g></svg>