<svg viewBox="0 0 512 512" version="1.1" xmlns="http://www.w3.org/2000/svg"><path d="M292 135c10.483 4.261 18.208 11.834 23 22 4.928 12.516 3.01 25.763 1.563 38.813-2.125 19.525-2.725 38.738-2.693 58.364q.006 5.284-.004 10.568c-.024 17.105.271 34.168 1.134 51.255l2.232.386 2.959.523 2.92.512c4.477.898 8.715 2.306 13.014 3.829l2.93 1.026c8.835 3.176 17.448 6.83 26.07 10.536 30.375 13.06 61.193 24.643 93.512 31.899 3.507.82 6.99 1.68 10.445 2.703l2.152.631c2.348 1.27 2.876 2.47 3.766 4.955 0 6.47-2.654 9.628-7 14l1.758.48c6.648 1.986 10.951 4.282 15.055 10.082 2.877 5.907 3.088 12.224 1.187 18.5-2.017 4.824-5.601 8.207-10 10.938-4.961 1.678-9.265 2.251-14.49 2.254l-2.195.01c-2.423.008-4.846.003-7.269-.003l-5.27.011c-4.824.01-9.648.008-14.472.004-5.204-.002-10.408.007-15.612.014q-15.29.018-30.58.012a34081 34081 0 0 0-35.611.01q-33.692.014-67.383.003c-20.55-.006-41.101.006-61.652.025q-31.647.03-63.296.024c-11.846-.002-23.693 0-35.539.014q-15.128.019-30.254.002-7.719-.011-15.436.005-7.068.014-14.135-.007-2.554-.004-5.109.008c-19.265.084-19.265.084-26.037-5.218-4.707-5.835-7.146-10.403-6.91-18.156.76-6.11 4.048-10.712 8.25-15.012 4.938-3.367 9.241-3.346 15-3l-.84-1.828-1.097-2.422-1.09-2.39c-3.459-8.39-2.808-17.34.578-25.657 5.076-9.468 13.318-16.219 23.398-19.73 11.786-3.275 23.823-2.967 34.996 2.457 3.76 2.203 7.07 4.376 10.055 7.57 3.558-1 5.663-2.546 8.25-5.062 7.923-7.136 18.164-12.026 28.35-14.939 11.229-3.26 16.574-9.826 23.4-18.999q1.991-2.476 4-4.937l1.863-2.368a492 492 0 0 1 5.055-6.265c6.182-7.544 12.242-15.16 18.133-22.934a633 633 0 0 1 8.457-10.937c9.637-12.17 18.355-24.787 26.492-38.006 1-1.553 1-1.553 2-2.553 4.877-.496 7.023-.601 11.25 2 4.89 4.744 7.431 10.833 7.808 17.604-.208 8.576-5.503 15.823-9.995 22.771-.67 1.051-1.338 2.103-2.027 3.186q-2.042 3.21-4.097 6.412a1543 1543 0 0 0-6.672 10.529c-2.415 3.837-4.842 7.667-7.267 11.498q-3.282 5.187-6.562 10.375l-1.519 2.398c-2.35 3.717-4.68 7.441-6.919 11.227 3.454.459 6.913.859 10.375 1.25l2.926.39c6.38.686 10.6.04 16.416-2.657 3.113-1.34 5.923-1.69 9.283-1.983l.078-3.277c.71-21.678 5.164-42.237 10.398-63.191 7.496-30.055 13.835-60.635 16.067-91.587l.243-3.364q.208-3.111.356-6.225c.415-6.734.415-6.734 2.721-9.97 3.298-2.14 5.261-1.958 9.137-1.386m4 24-.456 3.38c-3.655 26.964-7.897 53.547-14.263 80.022l-.735 3.058a2209 2209 0 0 1-3.676 15.041c-2.193 8.896-4.234 17.77-5.69 26.82l-.368 2.252c-1.124 7.473-1.093 14.886-.812 22.427l2.535-.035c8.883-.069 17.611.36 26.465 1.035l-.21-3.725c-.866-16.4-1.029-32.792-1.04-49.212l-.003-2.114c-.035-24.97.659-49.81 3.831-74.61 1.077-8.522 1.183-15.868-3.578-23.339zm-80 121 1 2Zm-2 3v3Zm33 49 .484 2.352c1.967 13.912.789 28.05-2.484 41.648 10.114 3.054 17.372 2.62 27-2 3.4-2.209 5.734-4.601 8-8 3.591-1.197 6.889-1.18 10.629-1.203l2.33-.021c2.534-.018 5.069-.024 7.603-.026l2.643-.002c17.73.022 35.198 1.131 52.795 3.252l2.036.243c24.12 2.91 47.643 8.197 71.137 14.324 7.243 1.87 13.994 1.85 20.827-1.567-2.283-2.283-3.456-2.553-6.54-3.34l-2.895-.764-3.19-.834c-26.276-7.155-51.386-16.88-76.458-27.418C325.301 333.681 285.643 318.361 247 332m-35-46c-6.01 6.902-11.951 13.83-17.562 21.063a420 420 0 0 1-12.456 15.256 526 526 0 0 0-8.42 10.118 826 826 0 0 1-11 13.188l-1.577 1.869c-3.751 4.39-3.751 4.39-5.985 5.506-4.051.259-5.543.304-9-2-1.187-2.125-1.187-2.125-2-4-3.999 1.415-7.137 3.32-10.562 5.813l-2.817 2.019c-4.14 3.424-6.442 5.436-7.012 10.938q.04 2.022.141 4.043l.055 2.1c.046 1.696.118 3.392.195 5.087 12.942 6.153 26.565 10.465 41 11l2.895.121c15.959.335 30.906-2.509 46.105-7.121l2.249-.64c8.355-2.212 8.355-2.212 14.306-7.977.81-2.848 1.205-5.436 1.445-8.383l.527-2.777c.604-4.114.657-8.133.66-12.286l.038-2.392c.01-4.308-.226-7.618-2.225-11.545l-3.89-.414c-2.525-.27-5.017-.57-7.518-1.007-5.919-1.028-11.887-1.858-17.592.421-5.427 4.944-8.494 11.87-11.676 18.375-1.763 3.495-3.81 6.64-6.012 9.875l-1.824 2.766C181 367 181 367 179 368c-3.582.39-5.363.436-8.375-1.625-2.159-3.155-2.068-4.578-1.625-8.375 1.27-2.843 2.93-5.394 4.625-8l1.483-2.35c1.618-2.558 3.255-5.104 4.892-7.65q1.714-2.7 3.426-5.402 3.526-5.564 7.074-11.114a2955 2955 0 0 0 11.424-18.036c2.11-3.353 4.228-6.697 6.412-10.003l1.976-3.007 1.676-2.504L213 288zM81 350l1.68 3 2.195 4 1.105 1.965c3.917 7.192 5.21 13.913 5.645 22.035l.117 2.059c.093 1.646.176 3.294.258 4.941 6.496-.723 9.693-3.247 14-8 2.418-3.471 3.242-6.854 2.938-11.062-1.151-6.288-5.057-10.663-9.88-14.614C93.493 350.744 87.51 349.83 81 350m-17 8c-3.324 3.726-4.87 6.276-5.25 11.313.448 6.601 3.391 10.393 8.25 14.687 4.086 3.208 4.086 3.208 9 4 .656-11.624-.778-19.989-8.633-28.82-1.318-1.398-1.318-1.398-3.367-1.18m216 29v1h101v-1c-29.884-4.573-29.884-4.573-60-7l-1.954-.091a499 499 0 0 0-12.905-.423 256 256 0 0 1-4.22-.13c-9.3-.34-15.503.48-21.921 7.644M43 404c-2.246 2.689-2.246 2.689-1.812 5.063.753 2.297.753 2.297 3.812 3.937 3.203.304 3.203.304 6.949.254l2.165.01c2.414.009 4.827.003 7.24-.003l5.222.011c4.797.01 9.594.008 14.39.004 5.168-.002 10.336.007 15.504.014q15.195.018 30.389.012a33619 33619 0 0 1 35.363.01q33.45.014 66.898.003c20.419-.006 40.837.006 61.256.025q31.419.03 62.838.024c11.767-.002 23.535 0 35.302.014q15.026.019 30.052.002a4398 4398 0 0 1 15.343.005q7.017.014 14.032-.007 2.545-.004 5.09.008c2.298.01 4.595.002 6.893-.011h3.875c3.383-.397 4.76-1.064 7.199-3.375-.379-3.29-.379-3.29-2-6-2.255-.1-4.513-.13-6.77-.131l-2.182-.007q-3.663-.006-7.327-.002l-5.27-.01q-7.276-.011-14.553-.01c-5.222-.002-10.445-.01-15.667-.016q-17.145-.02-34.288-.024l-21.39-.012q-29.58-.019-59.162-.026h-7.665l-11.556-.003q-30.96-.007-61.919-.045-31.748-.035-63.495-.037-17.841.001-35.682-.025-15.187-.023-30.375-.012a4487 4487 0 0 1-15.512-.011 2696 2696 0 0 0-14.18 0q-2.575.004-5.15-.01c-2.32-.01-4.64-.003-6.96.01l-3.918-.003zM154.5 151.188c3.5.812 3.5.812 5.438 1.875 1.73 3.154 1.491 6.457 1.062 9.937-1.136 2.571-2.203 4.666-3.687 7l-1.107 1.825A493 493 0 0 1 153 177l-1.54 2.61c-1.925 3.236-3.285 5.273-6.46 7.39-3.592.459-5.316.48-8.312-1.625-2.126-2.992-2.499-4.698-2.688-8.375.87-2.799 2.176-5.299 3.563-7.875l1.112-2.137c8.598-16.188 8.598-16.188 15.825-15.8M377 114c3.655 2.302 6.792 5.119 10 8l2.828 2.465c8.031 7.079 8.031 7.079 8.547 12.41-.055 3.33-.24 3.958-2.437 6.688-3.91 1.912-5.738 1.503-9.938.437-2.443-1.631-4.44-3.602-6.5-5.687a2171 2171 0 0 0-3.39-3.301l-1.62-1.593c-1.817-1.73-3.754-3.263-5.74-4.794C366 126 366 126 364.875 122.938c.149-3.502.999-5.182 3.125-7.938 3.117-1.559 5.666-1.838 9-1M208 106c2.5 3.75 2.536 5.559 2 10-3.256 3.74-6.843 6.395-11 9.063-3.02 1.945-5.875 3.831-8.621 6.152-3.743 2.809-5.793 2.367-10.379 1.785-2.5-1.562-2.5-1.562-4-4-.562-3.437-.562-3.437 0-7 7.24-8.125 20.627-21.231 32-16M434.063 230.5c3.216.547 4.645 1.208 6.937 3.5 1.295 3.886 1.149 7.576 1.125 11.625l-.01 2.46c-.127 14.717-.127 14.717-3.115 19.915-2.676 2.082-4.118 1.996-7.562 1.875C428 269 428 269 426.3 267.235c-2.406-4.133-1.504-8.584-1.301-13.235q.031-2.274.059-4.547.061-2.415.128-4.828l.017-2.342c.166-4.201.472-5.87 3.155-9.29C431 231 431 231 434.063 230.5M318.555 86.504c2.753.686 5.472 1.45 8.195 2.246l2.824.766C338.128 91.97 338.128 91.97 341 96c.923 3.165 1.298 5.105.25 8.25C340 106 340 106 337 108c-6.687.268-13.513-2.002-19.875-3.812l-2.836-.752-2.719-.768-2.445-.679c-2.644-1.23-3.657-2.489-5.125-4.989-.485-3.88-.569-6.076 1.5-9.437 4.115-2.572 8.45-1.968 13.055-1.059M272.813 85.25c2.138 3.151 2.393 5.67 1.687 9.375-2.403 3.804-6.423 4.872-10.646 5.895-2.28.439-4.56.815-6.854 1.168l-2.328.392c-12.128 1.95-12.128 1.95-16.672-1.08-2.355-3.532-2.373-5.07-1.883-9.133 1.346-2.846 3.062-3.539 5.883-4.867 3.488-.914 3.488-.914 7.313-1.625l2.017-.376c1.888-.346 3.779-.673 5.67-.999l2.547-.445c4.69-.71 9.219-1.096 13.265 1.695M419 165.371c3.605 1.134 5.19 4.145 6.938 7.349.938 1.889 1.82 3.795 2.687 5.718.3.642.598 1.285.906 1.947 2.946 6.418 5.224 11.462 3.469 18.615-1.062 1.938-1.062 1.938-3 3-6.979.775-6.979.775-10.062-1.566-2.409-3.025-3.69-6.218-5-9.809q-.733-1.95-1.473-3.898l-.721-1.904c-.707-1.732-1.55-3.406-2.4-5.073-1.721-3.522-1.846-5.877-1.344-9.75 2.59-4.208 5.403-4.476 10-4.629" fill="#FFFFFF"/><path d="M426 299c1.938 1.625 1.938 1.625 3 4 .127 7.258-2.98 13.061-7 19-3.72 2.48-5.598 2.463-10 2-2.437-1.5-2.437-1.5-4-4-1.422-7.112 1.67-12.025 4.98-18.242 3.79-5.174 7.393-5.45 13.02-2.758M133 215c2.765 2.088 3.872 3.249 4.46 6.7-.468 16.308-.468 16.308-4.46 20.3-3.572 1.032-5.326 1.306-8.75-.25C122 240 122 240 120 237a82 82 0 0 1 .188-7.875l.095-2.145c.284-4.413 1.015-7.453 3.717-10.98 3.092-1.546 5.594-1.294 9-1" fill="#FFFFFF"/></svg>